<?xml version="1.0" encoding="UTF-8" standalone="no"?>
<!DOCTYPE svg PUBLIC "-//W3C//DTD SVG 1.1//EN" "http://www.w3.org/Graphics/SVG/1.1/DTD/svg11.dtd">
<svg width="100%" height="100%" viewBox="0 0 1000 1000" version="1.1" xmlns="http://www.w3.org/2000/svg" xmlns:xlink="http://www.w3.org/1999/xlink" xml:space="preserve" xmlns:serif="http://www.serif.com/" style="fill-rule:evenodd;clip-rule:evenodd;stroke-linecap:round;stroke-linejoin:round;stroke-miterlimit:1.5;">
    <g transform="matrix(1,0,0,0.997571,0,0.00280781)">
        <path d="M500,1000.29C582.479,1000.29 653.474,980.865 684.776,953.024C689.554,948.773 695.103,945.479 701.122,943.32C743.672,928.052 769.547,907.917 769.547,885.86C769.547,885.86 769.547,885.86 769.547,885.86C769.547,885.783 769.547,313.205 769.547,191.628C769.547,176.838 765.948,162.27 759.059,149.182C746.305,124.951 725.617,85.645 718.636,72.381C717.293,69.828 717.286,66.779 718.618,64.22C719.863,61.824 720.505,59.381 720.505,56.9C720.505,26.134 621.7,1.156 500,1.156C378.3,1.156 279.495,26.134 279.495,56.9C279.495,59.381 280.137,61.824 281.383,64.22C282.715,66.779 282.708,69.828 281.364,72.381C274.383,85.645 253.695,124.951 240.941,149.182C234.052,162.27 230.453,176.838 230.453,191.628C230.453,313.205 230.453,885.783 230.453,885.86C230.453,907.917 256.328,928.052 298.863,943.361C304.878,945.517 310.422,948.808 315.196,953.055C346.526,980.865 417.521,1000.29 500,1000.29Z" style="fill:none;stroke:white;stroke-width:4.17px;"/>
    </g>
    <g id="second">
        <path d="M769.622,517.885C769.622,517.885 634.942,524.333 507.469,422.482C373.299,315.281 230.234,313.153 230.234,313.153" style="fill:none;stroke:white;stroke-width:4.17px;"/>
        <path d="M769.545,822.604C730.316,789.985 651.859,724.747 566.634,617.368C448.921,469.056 303.277,446.435 230.455,435.125" style="fill:none;stroke:white;stroke-width:4.17px;"/>
    </g>
</svg>
