<?xml version="1.0" encoding="UTF-8" standalone="no"?>
<!DOCTYPE svg PUBLIC "-//W3C//DTD SVG 1.1//EN" "http://www.w3.org/Graphics/SVG/1.1/DTD/svg11.dtd">
<svg width="100%" height="100%" viewBox="0 0 1000 1000" version="1.1" xmlns="http://www.w3.org/2000/svg" xmlns:xlink="http://www.w3.org/1999/xlink" xml:space="preserve" xmlns:serif="http://www.serif.com/" style="fill-rule:evenodd;clip-rule:evenodd;stroke-linecap:round;stroke-linejoin:round;stroke-miterlimit:10;">
    <g transform="matrix(0.997987,0,0,0.997987,2.9561,1.15247)">
        <path d="M500.299,973.136C506.569,973.196 512.825,975.144 518.17,978.98C521.814,981.595 525.644,984.344 529.289,986.96C540.148,994.753 554.769,994.753 565.629,986.96C569.273,984.344 573.103,981.595 576.747,978.98C587.607,971.186 602.228,971.186 613.087,978.98C616.732,981.595 620.561,984.344 624.206,986.96C635.066,994.753 649.686,994.753 660.546,986.96C664.19,984.344 668.02,981.595 671.664,978.98C682.524,971.186 697.145,971.186 708.005,978.98C711.649,981.595 715.479,984.344 719.123,986.96C729.983,994.753 744.603,994.753 755.463,986.96C757.286,985.652 759.154,984.31 761.023,982.969C775.205,972.791 794.298,972.791 808.48,982.969C816.024,988.383 823.568,993.797 828.062,997.023C830.541,998.802 833.879,998.802 836.359,997.023C836.694,996.782 837.042,996.532 837.401,996.275C846.404,989.813 851.743,979.41 851.743,968.328C851.743,939.03 851.743,881.636 851.747,861.932C851.747,857.418 852.356,852.926 853.56,848.575C882.269,744.222 898.498,625.667 898.498,500C898.498,374.333 882.269,255.778 853.557,151.425C852.353,147.075 851.743,142.582 851.743,138.068C851.743,113.794 851.743,32.32 851.743,16.641C851.743,14.995 850.95,13.449 849.613,12.489C848.845,11.938 847.909,11.267 846.875,10.525C838.11,4.234 826.31,4.234 817.546,10.525C812.923,13.843 807.759,17.549 802.922,21.02C792.062,28.814 777.441,28.814 766.582,21.02C762.937,18.405 759.108,15.656 755.463,13.04C744.603,5.247 729.983,5.247 719.123,13.04C715.479,15.656 711.649,18.405 708.005,21.02C697.145,28.814 682.524,28.814 671.664,21.02C668.02,18.405 664.19,15.656 660.546,13.04C649.686,5.247 635.066,5.247 624.206,13.04C620.561,15.656 616.732,18.405 613.087,21.02C602.228,28.814 587.607,28.814 576.747,21.02C573.103,18.405 569.273,15.656 565.629,13.04C554.769,5.247 540.148,5.247 529.289,13.04C525.644,15.656 521.814,18.405 518.17,21.02C507.31,28.814 492.69,28.814 481.83,21.02C478.186,18.405 474.356,15.656 470.711,13.04C459.852,5.247 445.231,5.247 434.371,13.04C430.727,15.656 426.897,18.405 423.253,21.02C412.393,28.814 397.772,28.814 386.913,21.02C383.268,18.405 379.439,15.656 375.794,13.04C364.934,5.247 350.314,5.247 339.454,13.04C335.81,15.656 331.98,18.405 328.336,21.02C317.476,28.814 302.855,28.814 291.995,21.02C288.351,18.405 284.521,15.656 280.877,13.04C270.017,5.247 255.397,5.247 244.537,13.04C242.714,14.348 240.846,15.69 238.977,17.031C224.795,27.209 205.702,27.209 191.52,17.031C183.277,11.115 175.034,5.199 170.769,2.138C168.988,0.86 166.591,0.86 164.81,2.138C164.496,2.364 164.165,2.601 163.822,2.848C157.15,7.636 153.193,15.345 153.193,23.558C153.193,45.861 153.193,90.557 153.189,108.327C153.189,113.301 152.449,118.247 150.992,123.002C117.171,234.034 97.819,362.777 97.819,500C97.819,637.223 117.171,765.966 150.995,876.997C152.452,881.752 153.193,886.699 153.193,891.673C153.193,913.081 153.193,973.567 153.193,986.902C153.193,988.548 153.987,990.094 155.324,991.054C155.466,991.156 155.614,991.261 155.766,991.371C162.952,996.528 172.627,996.528 179.813,991.371C185.048,987.614 191.296,983.129 197.078,978.98C207.938,971.186 222.559,971.186 233.418,978.98C237.063,981.595 240.892,984.344 244.537,986.96C255.397,994.753 270.017,994.753 280.877,986.96C284.521,984.344 288.351,981.595 291.995,978.98C302.855,971.186 317.476,971.186 328.336,978.98C331.98,981.595 335.81,984.344 339.454,986.96C350.314,994.753 364.934,994.753 375.794,986.96C379.439,984.344 383.268,981.595 386.913,978.98C397.772,971.186 412.393,971.186 423.253,978.98C426.897,981.595 430.727,984.344 434.371,986.96C445.231,994.753 459.852,994.753 470.711,986.96C474.356,984.344 478.186,981.595 481.83,978.98C487.345,975.022 493.829,973.074 500.299,973.136Z" style="fill:none;stroke:white;stroke-width:4.18px;"/>
    </g>
    <g transform="matrix(1.00179,0,0,1.00179,-0.619793,-2.84864)">
        <path d="M532.631,534.036C532.631,534.036 563.359,548.944 595.577,548.944C627.796,548.944 656.785,537.514 677.408,509.52C698.032,481.525 698.581,468.563 698.581,446.117C698.581,423.672 684.998,398.659 641.101,398.659C597.204,398.659 584.289,433.693 516.29,433.693C448.291,433.693 454.968,414.892 391.689,414.892C328.411,414.892 301.738,449.544 301.738,494.114C301.738,538.684 339.03,597.795 428.957,598.856C552.699,600.316 561.89,400.879 641.101,398.659" style="fill:none;stroke:white;stroke-width:4.16px;stroke-miterlimit:1.5;"/>
    </g>
</svg>
