<?xml version="1.0" encoding="UTF-8" standalone="no"?>
<!DOCTYPE svg PUBLIC "-//W3C//DTD SVG 1.1//EN" "http://www.w3.org/Graphics/SVG/1.1/DTD/svg11.dtd">
<svg width="100%" height="100%" viewBox="0 0 1000 1000" version="1.1" xmlns="http://www.w3.org/2000/svg" xmlns:xlink="http://www.w3.org/1999/xlink" xml:space="preserve" xmlns:serif="http://www.serif.com/" style="fill-rule:evenodd;clip-rule:evenodd;stroke-linecap:round;stroke-linejoin:round;stroke-miterlimit:1.5;">
    <g id="first">
        <path d="M479.067,983.6C605.74,982.333 821.174,948.188 886.205,878.844C924.955,837.524 974.669,648.535 986.378,572.772C986.815,569.453 985.561,566.135 983.037,563.935C980.513,561.735 977.055,560.946 973.826,561.832C960.828,565.312 947.168,567.146 933.084,567.146C856.395,567.146 792.307,512.771 777.303,440.504C776.447,436.309 773.013,433.127 768.765,432.591C649.315,417.071 556.93,314.828 556.93,191.177C556.93,130.156 579.43,74.348 616.578,31.604C618.991,28.86 619.709,25.017 618.451,21.586C617.193,18.156 614.16,15.688 610.546,15.154C470.973,-5.032 326.019,7.963 226.04,82.08C121.575,159.521 7.382,352.479 2.509,482.693C-2.363,612.907 79.281,771.912 178.048,856.908C276.816,941.905 342.703,984.964 479.067,983.6Z" style="fill:none;stroke:white;stroke-width:4.17px;"/>
    </g>
    <g id="second">
        <path d="M230.176,294.199C243.714,294.199 254.218,306.182 254.218,319.72C254.218,333.258 243.714,343.258 230.176,343.258C216.638,343.258 205.646,332.267 205.646,318.729C205.646,305.191 216.638,294.199 230.176,294.199Z" style="fill:none;stroke:white;stroke-width:4.17px;"/>
        <path d="M583.77,689.756C595.606,689.756 608.187,697.631 608.187,709.466C608.187,721.301 595.606,732.644 583.77,732.644C571.935,732.644 563.595,723.194 563.595,711.359C563.595,699.524 571.935,689.756 583.77,689.756Z" style="fill:none;stroke:white;stroke-width:4.17px;"/>
        <path d="M342.178,769.361C358.952,769.361 372.57,782.979 372.57,799.753C372.57,816.527 359.428,828.084 342.654,828.084C325.88,828.084 311.786,816.527 311.786,799.753C311.786,782.979 325.405,769.361 342.178,769.361Z" style="fill:none;stroke:white;stroke-width:4.17px;"/>
        <path d="M386.729,429.82C416.33,429.82 440.362,453.852 440.362,483.452C440.362,513.053 416.33,537.085 386.729,537.085C357.129,537.085 324.726,517.619 324.726,488.018C324.726,458.418 357.129,429.82 386.729,429.82Z" style="fill:none;stroke:white;stroke-width:4.17px;"/>
    </g>
</svg>
