<?xml version="1.0" encoding="UTF-8" standalone="no"?>
<!DOCTYPE svg PUBLIC "-//W3C//DTD SVG 1.1//EN" "http://www.w3.org/Graphics/SVG/1.1/DTD/svg11.dtd">
<svg width="100%" height="100%" viewBox="0 0 1000 1000" version="1.1" xmlns="http://www.w3.org/2000/svg" xmlns:xlink="http://www.w3.org/1999/xlink" xml:space="preserve" xmlns:serif="http://www.serif.com/" style="fill-rule:evenodd;clip-rule:evenodd;stroke-linecap:round;stroke-linejoin:round;stroke-miterlimit:1.5;">
    <g>
        <path id="Glas" d="M290.133,1000L709.867,1000C709.867,1000 709.867,999.999 709.867,999.998C709.867,991.461 702.947,984.54 694.41,984.54C680.165,984.54 657.57,984.54 633.042,984.54C600.941,984.54 570.19,971.628 547.712,948.71C525.234,925.793 512.919,894.797 513.541,862.702C515.928,739.459 519.497,555.143 521.175,468.508C521.766,438.012 536.243,409.453 560.49,390.948C673.964,304.351 1000,55.538 1000,55.538C1000,55.538 668.265,89.347 502.09,89.347C335.423,89.347 -0,55.538 -0,55.538C0,55.538 326.036,304.351 439.51,390.948C463.757,409.453 478.234,438.012 478.825,468.508C480.503,555.143 484.072,739.459 486.459,862.702C487.081,894.797 474.766,925.793 452.288,948.71C429.81,971.628 399.059,984.54 366.958,984.54C342.43,984.54 319.835,984.54 305.59,984.54C297.053,984.54 290.133,991.461 290.133,999.998L290.133,1000Z" style="fill:none;stroke:white;stroke-width:4.17px;"/>
    </g>
    <g>
        <path id="Olive" d="M876.98,4.197C876.981,4.198 876.981,4.198 876.982,4.199C879.349,6.566 879.349,10.404 876.982,12.772C839.351,50.402 566.657,323.096 566.657,323.096C578.47,339.017 577.16,361.637 562.726,376.071C547.805,390.992 524.137,391.889 508.164,378.763L475.859,405.409L502.505,373.104C489.379,357.131 490.276,333.463 505.197,318.542C519.631,304.108 542.251,302.798 558.172,314.611C558.172,314.611 831.299,41.484 868.585,4.197C870.903,1.879 874.662,1.879 876.98,4.197Z" style="fill:none;stroke:white;stroke-width:4.17px;"/>
    </g>
</svg>
