<?xml version="1.0" encoding="UTF-8" standalone="no"?>
<!DOCTYPE svg PUBLIC "-//W3C//DTD SVG 1.1//EN" "http://www.w3.org/Graphics/SVG/1.1/DTD/svg11.dtd">
<svg width="100%" height="100%" viewBox="0 0 1000 1000" version="1.1" xmlns="http://www.w3.org/2000/svg" xmlns:xlink="http://www.w3.org/1999/xlink" xml:space="preserve" xmlns:serif="http://www.serif.com/" style="fill-rule:evenodd;clip-rule:evenodd;stroke-linejoin:round;stroke-miterlimit:2;">
    <g transform="matrix(1.95304,0,0,1.95304,0,0.0440365)">
        <path d="M448,512C466,512 481.8,499.9 486.6,482.5L510.6,394.5C515.9,375.1 506,354.8 487.4,347.1L391.4,307.1C375.1,300.3 356.2,305 345.1,318.7L304.7,368C234.3,334.7 177.3,277.7 144,207.3L193.3,167C207,155.8 211.7,137 204.9,120.7L164.9,24.7L164.9,24.6C157.2,6 136.9,-3.9 117.5,1.4L29.5,25.4C12.1,30.2 0,46 0,64C0,311.4 200.6,512 448,512Z" style="fill:none;fill-rule:nonzero;stroke:white;stroke-width:2.13px;"/>
    </g>
</svg>
