<?xml version="1.0" encoding="UTF-8" standalone="no"?>
<!DOCTYPE svg PUBLIC "-//W3C//DTD SVG 1.1//EN" "http://www.w3.org/Graphics/SVG/1.1/DTD/svg11.dtd">
<svg width="100%" height="100%" viewBox="0 0 1000 1000" version="1.1" xmlns="http://www.w3.org/2000/svg" xmlns:xlink="http://www.w3.org/1999/xlink" xml:space="preserve" xmlns:serif="http://www.serif.com/" style="fill-rule:evenodd;clip-rule:evenodd;stroke-linecap:round;stroke-linejoin:round;stroke-miterlimit:1.5;">
    <g id="Toothbrush" transform="matrix(0.980821,-0.980821,0.980821,0.980821,-272.019,800.85)">
        <path d="M83.88,280.378L577.32,280.378C578.586,280.378 579.829,280.711 580.925,281.344C590.203,286.7 635.25,312.708 644.527,318.064C645.623,318.697 646.866,319.03 648.132,319.03C670.062,319.031 872.106,319.036 913.031,319.037C914.943,319.037 916.777,318.278 918.129,316.926C919.481,315.574 920.241,313.74 920.241,311.828C920.241,292.235 920.241,238.169 920.241,218.576C920.241,216.664 919.481,214.83 918.129,213.478C916.777,212.126 914.943,211.367 913.031,211.367L677.45,211.367C675.538,211.367 673.704,212.126 672.352,213.478C671,214.83 670.241,216.664 670.241,218.576C670.241,233.865 670.241,269.387 670.241,284.676C670.241,286.588 669.481,288.422 668.129,289.774C666.777,291.126 664.943,291.885 663.031,291.885C660.312,291.885 657.425,291.885 655.548,291.885C654.201,291.885 652.881,291.508 651.738,290.796C641.707,284.563 591.782,253.684 586.5,253.273C497.857,246.376 139.231,246.865 83.865,246.983C79.889,246.991 76.671,250.217 76.671,254.192C76.671,259.801 76.671,267.555 76.671,273.168C76.671,275.08 77.431,276.914 78.783,278.266C80.135,279.618 81.968,280.378 83.88,280.378Z" style="fill:none;stroke:white;stroke-width:3px;"/>
    </g>
    <g id="Pasta" transform="matrix(1.30754,-0.145548,0.145548,1.30754,-223.557,21.4944)">
        <path d="M572.358,305.065C572.358,305.065 571.408,272.641 679.023,206.741C794.936,135.759 717.695,67.217 717.695,67.217C717.695,67.217 739.483,102.09 634.79,161.244C507.506,233.161 572.358,305.065 572.358,305.065Z" style="fill:none;stroke:white;stroke-width:3.17px;stroke-linecap:butt;"/>
    </g>
</svg>
