<?xml version="1.0" encoding="UTF-8" standalone="no"?>
<!DOCTYPE svg PUBLIC "-//W3C//DTD SVG 1.1//EN" "http://www.w3.org/Graphics/SVG/1.1/DTD/svg11.dtd">
<svg width="100%" height="100%" viewBox="0 0 1000 1000" version="1.1" xmlns="http://www.w3.org/2000/svg" xmlns:xlink="http://www.w3.org/1999/xlink" xml:space="preserve" xmlns:serif="http://www.serif.com/" style="fill-rule:evenodd;clip-rule:evenodd;stroke-linecap:round;stroke-linejoin:round;stroke-miterlimit:1.5;">
    <g transform="matrix(3.17988,0,0,3.17988,-1740.74,-1084.52)">
        <path d="M759.765,366.841C784.326,402.844 798.692,446.345 798.692,493.175C798.692,539.106 784.873,581.834 761.169,617.426" style="fill:none;stroke:white;stroke-width:1.31px;"/>
    </g>
    <g transform="matrix(3.17988,0,0,3.17988,-1740.74,-1084.52)">
        <path d="M711.394,590.961C731.141,563.399 742.769,529.634 742.769,493.175C742.769,456.168 730.788,421.936 710.498,394.15" style="fill:none;stroke:white;stroke-width:1.31px;"/>
    </g>
    <g transform="matrix(3.17988,0,0,3.17988,-1740.74,-1084.52)">
        <path d="M663.7,420.091C679.208,440.366 688.425,465.703 688.425,493.175C688.425,520.436 679.349,545.595 664.057,565.791" style="fill:none;stroke:white;stroke-width:1.31px;"/>
    </g>
    <g transform="matrix(3.17988,0,0,3.17988,-1714.82,-1067.85)">
        <path d="M619.498,542.099C629.466,528.347 635.345,511.442 635.345,493.175C635.345,475.016 629.535,458.203 619.674,444.495" style="fill:none;stroke:white;stroke-width:1.31px;"/>
    </g>
</svg>
